# xmcd CD database file
#
# Track frame offsets:
#	150
#	24143
#	43694
#	61910
#	86471
#	103402
#	118156
#	135897
#	162488
#	186640
#	207537
#	226231
#
# Disc length: 3412 seconds
#
# Revision: 0
# Processed by: cddbd v1.5.2PL0 Copyright (c) Steve Scherf et al.
# Submitted via: CDex 1.70beta2
#
DISCID=a40d520c
DTITLE=Farish, Ryan - From the sky
DYEAR=1900
DGENRE=New Age
TTITLE0=The promise
TTITLE1=Living water
TTITLE2=Joy
TTITLE3=Pacific wind
TTITLE4=Home again
TTITLE5=Walk with you
TTITLE6=Legacy
TTITLE7=Cry no more
TTITLE8=Miles away
TTITLE9=Shine
TTITLE10=From the sky
TTITLE11=Rejoice!
EXTD=
EXTT0=
EXTT1=
EXTT2=
EXTT3=
EXTT4=
EXTT5=
EXTT6=
EXTT7=
EXTT8=
EXTT9=
EXTT10=
EXTT11=
PLAYORDER=
